<svg xmlns="http://www.w3.org/2000/svg" xmlns:xlink="http://www.w3.org/1999/xlink" width="1920" height="1080" viewBox="0 0 1920 1080">
  <defs>
    <radialGradient id="radial-gradient" cx="0.5" cy="0.5" r="0.5" gradientUnits="objectBoundingBox">
      <stop offset="0" stop-color="#fb3c5d"/>
      <stop offset="0.176" stop-color="#f43757"/>
      <stop offset="1" stop-color="#c21331"/>
    </radialGradient>
    <linearGradient id="linear-gradient" x1="0.5" x2="0.5" y2="1" gradientUnits="objectBoundingBox">
      <stop offset="0" stop-color="#f46323"/>
      <stop offset="1" stop-color="#ae4a20"/>
    </linearGradient>
    <filter id="Rectangle_1613" x="862" y="585" width="45" height="35" filterUnits="userSpaceOnUse">
      <feOffset dy="3" input="SourceAlpha"/>
      <feGaussianBlur stdDeviation="3" result="blur"/>
      <feFlood flood-opacity="0.361"/>
      <feComposite operator="in" in2="blur"/>
      <feComposite in="SourceGraphic"/>
    </filter>
    <filter id="Path_11" x="846.762" y="610.163" width="85.285" height="85.285" filterUnits="userSpaceOnUse">
      <feOffset dy="3" input="SourceAlpha"/>
      <feGaussianBlur stdDeviation="3" result="blur-2"/>
      <feFlood flood-opacity="0.529"/>
      <feComposite operator="in" in2="blur-2"/>
      <feComposite in="SourceGraphic"/>
    </filter>
    <clipPath id="clip-Web_1920_9">
      <rect width="1920" height="1080"/>
    </clipPath>
  </defs>
  <g id="Web_1920_9" data-name="Web 1920 – 9" clip-path="url(#clip-Web_1920_9)">
    <rect width="1920" height="1080" fill="#fff"/>
    <rect id="Rectangle_1532" data-name="Rectangle 1532" width="92" height="341" transform="translate(1042 406)" fill="#1e1010" opacity="0.35"/>
    <text id="_" data-name="በ" transform="translate(786 740)" fill="#fff" font-size="596" font-family="Ebrima-Bold, Ebrima" font-weight="700"><tspan x="0" y="0">በ</tspan></text>
    <rect id="Rectangle_1533" data-name="Rectangle 1533" width="129" height="184" rx="63" transform="translate(781 293)" fill="#1e1010" opacity="0.35"/>
    <rect id="Rectangle_1534" data-name="Rectangle 1534" width="159" height="436" rx="65" transform="translate(797 335)" opacity="0.34"/>
    <rect id="Rectangle_1535" data-name="Rectangle 1535" width="16" height="16" rx="8" transform="translate(847 480)" fill="url(#radial-gradient)"/>
    <rect id="Rectangle_1536" data-name="Rectangle 1536" width="16" height="16" rx="8" transform="translate(847 537)" fill="url(#radial-gradient)"/>
    <rect id="Rectangle_1537" data-name="Rectangle 1537" width="16" height="16" rx="8" transform="translate(855 439)" fill="url(#radial-gradient)"/>
    <rect id="Rectangle_1538" data-name="Rectangle 1538" width="16" height="16" rx="8" transform="translate(945 478)" fill="url(#radial-gradient)"/>
    <rect id="Rectangle_1539" data-name="Rectangle 1539" width="16" height="16" rx="8" transform="translate(945 535)" fill="url(#radial-gradient)"/>
    <rect id="Rectangle_1540" data-name="Rectangle 1540" width="16" height="16" rx="8" transform="translate(956 438)" fill="url(#radial-gradient)"/>
    <rect id="Rectangle_1541" data-name="Rectangle 1541" width="16" height="16" rx="8" transform="translate(842 466)" fill="url(#radial-gradient)"/>
    <rect id="Rectangle_1542" data-name="Rectangle 1542" width="16" height="16" rx="8" transform="translate(918 523)" fill="url(#radial-gradient)"/>
    <rect id="Rectangle_1543" data-name="Rectangle 1543" width="16" height="16" rx="8" transform="translate(918 580)" fill="url(#radial-gradient)"/>
    <rect id="Rectangle_1544" data-name="Rectangle 1544" width="16" height="16" rx="8" transform="translate(929 482)" fill="url(#radial-gradient)"/>
    <rect id="Rectangle_1545" data-name="Rectangle 1545" width="16" height="16" rx="8" transform="translate(901 355)" fill="url(#radial-gradient)"/>
    <rect id="Rectangle_1546" data-name="Rectangle 1546" width="16" height="16" rx="8" transform="translate(901 425)" fill="url(#radial-gradient)"/>
    <rect id="Rectangle_1547" data-name="Rectangle 1547" width="16" height="16" rx="8" transform="translate(912 323)" fill="url(#radial-gradient)"/>
    <rect id="Rectangle_1548" data-name="Rectangle 1548" width="16" height="16" rx="8" transform="translate(947 344)" fill="url(#radial-gradient)"/>
    <rect id="Rectangle_1549" data-name="Rectangle 1549" width="16" height="16" rx="8" transform="translate(947 411)" fill="url(#radial-gradient)"/>
    <rect id="Rectangle_1550" data-name="Rectangle 1550" width="16" height="16" rx="8" transform="translate(938 464)" fill="url(#radial-gradient)"/>
    <rect id="Rectangle_1551" data-name="Rectangle 1551" width="16" height="16" rx="8" transform="translate(822 447)" fill="url(#radial-gradient)"/>
    <rect id="Rectangle_1552" data-name="Rectangle 1552" width="16" height="16" rx="8" transform="translate(822 504)" fill="url(#radial-gradient)"/>
    <rect id="Rectangle_1553" data-name="Rectangle 1553" width="16" height="16" rx="8" transform="translate(830 406)" fill="url(#radial-gradient)"/>
    <rect id="Rectangle_1554" data-name="Rectangle 1554" width="16" height="16" rx="8" transform="translate(854 436)" fill="url(#radial-gradient)"/>
    <rect id="Rectangle_1555" data-name="Rectangle 1555" width="16" height="16" rx="8" transform="translate(854 493)" fill="url(#radial-gradient)"/>
    <rect id="Rectangle_1556" data-name="Rectangle 1556" width="16" height="16" rx="8" transform="translate(862 377)" fill="url(#radial-gradient)"/>
    <rect id="Rectangle_1557" data-name="Rectangle 1557" width="16" height="16" rx="8" transform="translate(830 707)" fill="url(#radial-gradient)"/>
    <rect id="Rectangle_1558" data-name="Rectangle 1558" width="16" height="16" rx="8" transform="translate(838 667)" fill="url(#radial-gradient)"/>
    <rect id="Rectangle_1559" data-name="Rectangle 1559" width="16" height="16" rx="8" transform="translate(922 706)" fill="url(#radial-gradient)"/>
    <rect id="Rectangle_1560" data-name="Rectangle 1560" width="16" height="16" rx="8" transform="translate(933 666)" fill="url(#radial-gradient)"/>
    <rect id="Rectangle_1561" data-name="Rectangle 1561" width="16" height="16" rx="8" transform="translate(825 694)" fill="url(#radial-gradient)"/>
    <rect id="Rectangle_1562" data-name="Rectangle 1562" width="16" height="16" rx="8" transform="translate(905 710)" fill="url(#radial-gradient)"/>
    <rect id="Rectangle_1563" data-name="Rectangle 1563" width="16" height="16" rx="8" transform="translate(858 596)" fill="url(#radial-gradient)"/>
    <rect id="Rectangle_1564" data-name="Rectangle 1564" width="16" height="16" rx="8" transform="translate(858 613)" fill="url(#radial-gradient)"/>
    <rect id="Rectangle_1565" data-name="Rectangle 1565" width="16" height="16" rx="8" transform="translate(866 556)" fill="url(#radial-gradient)"/>
    <rect id="Rectangle_1566" data-name="Rectangle 1566" width="16" height="16" rx="8" transform="translate(915 692)" fill="url(#radial-gradient)"/>
    <rect id="Rectangle_1567" data-name="Rectangle 1567" width="16" height="16" rx="8" transform="translate(805 675)" fill="url(#radial-gradient)"/>
    <rect id="Rectangle_1568" data-name="Rectangle 1568" width="16" height="16" rx="8" transform="translate(813 634)" fill="url(#radial-gradient)"/>
    <rect id="Rectangle_1569" data-name="Rectangle 1569" width="16" height="16" rx="8" transform="translate(837 664)" fill="url(#radial-gradient)"/>
    <rect id="Rectangle_1570" data-name="Rectangle 1570" width="16" height="16" rx="8" transform="translate(837 721)" fill="url(#radial-gradient)"/>
    <rect id="Rectangle_1571" data-name="Rectangle 1571" width="16" height="16" rx="8" transform="translate(845 624)" fill="url(#radial-gradient)"/>
    <rect id="Rectangle_1572" data-name="Rectangle 1572" width="16" height="16" rx="8" transform="translate(942 654)" fill="url(#radial-gradient)"/>
    <rect id="Rectangle_1573" data-name="Rectangle 1573" width="16" height="16" rx="8" transform="translate(845.855 552.221) rotate(-42)" fill="url(#radial-gradient)"/>
    <rect id="Rectangle_1574" data-name="Rectangle 1574" width="16" height="16" rx="8" transform="translate(899.553 495.274) rotate(-42)" fill="url(#radial-gradient)"/>
    <rect id="Rectangle_1575" data-name="Rectangle 1575" width="16" height="16" rx="8" transform="translate(854.989 478.766) rotate(-42)" fill="url(#radial-gradient)"/>
    <rect id="Rectangle_1576" data-name="Rectangle 1576" width="16" height="16" rx="8" transform="translate(870.493 427.083) rotate(-42)" fill="url(#radial-gradient)"/>
    <rect id="Rectangle_1577" data-name="Rectangle 1577" width="16" height="16" rx="8" transform="translate(924.217 483.382) rotate(-42)" fill="url(#radial-gradient)"/>
    <rect id="Rectangle_1578" data-name="Rectangle 1578" width="16" height="16" rx="8" transform="translate(933.35 409.927) rotate(-42)" fill="url(#radial-gradient)"/>
    <rect id="Rectangle_1579" data-name="Rectangle 1579" width="16" height="16" rx="8" transform="translate(842.896 378.038) rotate(-42)" fill="url(#radial-gradient)"/>
    <rect id="Rectangle_1580" data-name="Rectangle 1580" width="16" height="16" rx="8" transform="translate(789.981 375.421) rotate(-42)" fill="url(#radial-gradient)"/>
    <rect id="Rectangle_1581" data-name="Rectangle 1581" width="16" height="16" rx="8" transform="translate(903.371 381.028) rotate(-42)" fill="url(#radial-gradient)"/>
    <rect id="Rectangle_1582" data-name="Rectangle 1582" width="16" height="16" rx="8" transform="translate(957.096 437.326) rotate(-42)" fill="url(#radial-gradient)"/>
    <rect id="Rectangle_1583" data-name="Rectangle 1583" width="16" height="16" rx="8" transform="translate(875.775 331.982) rotate(-42)" fill="url(#radial-gradient)"/>
    <rect id="Rectangle_1584" data-name="Rectangle 1584" width="16" height="16" rx="8" transform="translate(801.529 417.713) rotate(-42)" fill="url(#radial-gradient)"/>
    <rect id="Rectangle_1585" data-name="Rectangle 1585" width="16" height="16" rx="8" transform="translate(835.364 490.908) rotate(-42)" fill="url(#radial-gradient)"/>
    <rect id="Rectangle_1586" data-name="Rectangle 1586" width="16" height="16" rx="8" transform="translate(814.546 501.799) rotate(-42)" fill="url(#radial-gradient)"/>
    <rect id="Rectangle_1587" data-name="Rectangle 1587" width="16" height="16" rx="8" transform="translate(868.242 444.853) rotate(-42)" fill="url(#radial-gradient)"/>
    <rect id="Rectangle_1588" data-name="Rectangle 1588" width="16" height="16" rx="8" transform="translate(823.68 428.345) rotate(-42)" fill="url(#radial-gradient)"/>
    <rect id="Rectangle_1589" data-name="Rectangle 1589" width="16" height="16" rx="8" transform="translate(841.434 358.893) rotate(-42)" fill="url(#radial-gradient)"/>
    <rect id="Rectangle_1590" data-name="Rectangle 1590" width="16" height="16" rx="8" transform="translate(895.157 415.191) rotate(-42)" fill="url(#radial-gradient)"/>
    <rect id="Rectangle_1591" data-name="Rectangle 1591" width="16" height="16" rx="8" transform="translate(948.854 358.244) rotate(-42)" fill="url(#radial-gradient)"/>
    <rect id="Rectangle_1592" data-name="Rectangle 1592" width="16" height="16" rx="8" transform="translate(904.291 341.736) rotate(-42)" fill="url(#radial-gradient)"/>
    <rect id="Rectangle_1593" data-name="Rectangle 1593" width="16" height="16" rx="8" transform="matrix(0.996, -0.087, 0.087, 0.996, 832.909, 683.721)" fill="url(#radial-gradient)"/>
    <rect id="Rectangle_1594" data-name="Rectangle 1594" width="16" height="16" rx="8" transform="matrix(0.996, -0.087, 0.087, 0.996, 888.244, 639.699)" fill="url(#radial-gradient)"/>
    <rect id="Rectangle_1595" data-name="Rectangle 1595" width="16" height="16" rx="8" transform="matrix(0.996, -0.087, 0.087, 0.996, 838.967, 518.426)" fill="url(#radial-gradient)"/>
    <rect id="Rectangle_1596" data-name="Rectangle 1596" width="16" height="16" rx="8" transform="matrix(0.996, -0.087, 0.087, 0.996, 845.926, 593.522)" fill="url(#radial-gradient)"/>
    <rect id="Rectangle_1597" data-name="Rectangle 1597" width="16" height="16" rx="8" transform="matrix(0.996, -0.087, 0.087, 0.996, 848.16, 463.856)" fill="url(#radial-gradient)"/>
    <rect id="Rectangle_1598" data-name="Rectangle 1598" width="16" height="16" rx="8" transform="matrix(0.996, -0.087, 0.087, 0.996, 913.514, 601.464)" fill="url(#radial-gradient)"/>
    <rect id="Rectangle_1599" data-name="Rectangle 1599" width="16" height="16" rx="8" transform="matrix(0.996, -0.087, 0.087, 0.996, 843.893, 667.68)" fill="url(#radial-gradient)"/>
    <rect id="Rectangle_1600" data-name="Rectangle 1600" width="16" height="16" rx="8" transform="matrix(0.996, -0.087, 0.087, 0.996, 904.706, 663.563)" fill="url(#radial-gradient)"/>
    <rect id="Rectangle_1601" data-name="Rectangle 1601" width="16" height="16" rx="8" transform="matrix(0.996, -0.087, 0.087, 0.996, 853.086, 610.11)" fill="url(#radial-gradient)"/>
    <rect id="Rectangle_1602" data-name="Rectangle 1602" width="16" height="16" rx="8" transform="matrix(0.996, -0.087, 0.087, 0.996, 810.77, 540.933)" fill="url(#radial-gradient)"/>
    <rect id="Rectangle_1603" data-name="Rectangle 1603" width="16" height="16" rx="8" transform="matrix(0.996, -0.087, 0.087, 0.996, 813.002, 411.267)" fill="url(#radial-gradient)"/>
    <rect id="Rectangle_1604" data-name="Rectangle 1604" width="129" height="184" rx="63" transform="translate(853 306)" fill="#1e1010"/>
    <rect id="Rectangle_1605" data-name="Rectangle 1605" width="129" height="184" rx="63" transform="translate(786 306)" fill="#1e1010"/>
    <rect id="Rectangle_1606" data-name="Rectangle 1606" width="18" height="37" rx="9" transform="matrix(0.899, 0.438, -0.438, 0.899, 808.021, 537.927)" fill="#cf621d"/>
    <rect id="Rectangle_1607" data-name="Rectangle 1607" width="18" height="37" rx="9" transform="translate(942.025 542.537) rotate(-25)" fill="#cf621d"/>
    <rect id="Rectangle_1608" data-name="Rectangle 1608" width="156" height="376" rx="65" transform="translate(806 376)" fill="url(#linear-gradient)"/>
    <ellipse id="Ellipse_53" data-name="Ellipse 53" cx="19" cy="15.5" rx="19" ry="15.5" transform="translate(904.838 504.001) rotate(3)"/>
    <ellipse id="Ellipse_54" data-name="Ellipse 54" cx="17" cy="13.5" rx="17" ry="13.5" transform="translate(906 507)" fill="#e1e1e1"/>
    <rect id="Rectangle_1609" data-name="Rectangle 1609" width="34" height="3" rx="1.5" transform="translate(906 495)"/>
    <rect id="Rectangle_1610" data-name="Rectangle 1610" width="34" height="3" rx="1.5" transform="translate(829 495)"/>
    <rect id="Rectangle_1611" data-name="Rectangle 1611" width="4" height="4" rx="2" transform="translate(803 568) rotate(90)" fill="#fff"/>
    <rect id="Rectangle_1612" data-name="Rectangle 1612" width="4" height="4" rx="2" transform="translate(969 564) rotate(90)" fill="#fff"/>
    <ellipse id="Ellipse_55" data-name="Ellipse 55" cx="18.5" cy="15.5" rx="18.5" ry="15.5" transform="translate(828 505)"/>
    <ellipse id="Ellipse_56" data-name="Ellipse 56" cx="16.5" cy="13.5" rx="16.5" ry="13.5" transform="matrix(1, -0.017, 0.017, 1, 829.775, 507.246)" fill="#e1e1e1"/>
    <ellipse id="Ellipse_57" data-name="Ellipse 57" cx="9.5" cy="9" rx="9.5" ry="9" transform="translate(841 508)"/>
    <ellipse id="Ellipse_58" data-name="Ellipse 58" cx="9.5" cy="9" rx="9.5" ry="9" transform="translate(917 508)"/>
    <g transform="matrix(1, 0, 0, 1, 0, 0)" filter="url(#Rectangle_1613)">
      <rect id="Rectangle_1613-2" data-name="Rectangle 1613" width="27" height="17" rx="8.5" transform="translate(871 591)" opacity="0.71"/>
    </g>
    <rect id="Rectangle_1614" data-name="Rectangle 1614" width="5" height="5" rx="2.5" transform="translate(957 593)" fill="rgba(18,18,18,0.78)"/>
    <rect id="Rectangle_1615" data-name="Rectangle 1615" width="4" height="4" rx="2" transform="translate(956 589)" fill="rgba(18,18,18,0.78)"/>
    <rect id="Rectangle_1616" data-name="Rectangle 1616" width="5" height="5" rx="2.5" transform="translate(953 597)" fill="rgba(18,18,18,0.78)"/>
    <rect id="Rectangle_1617" data-name="Rectangle 1617" width="9" height="9" rx="4.5" transform="translate(923 723)" fill="rgba(18,18,18,0.78)"/>
    <rect id="Rectangle_1618" data-name="Rectangle 1618" width="6" height="6" rx="3" transform="translate(956 602)" fill="rgba(18,18,18,0.78)"/>
    <rect id="Rectangle_1619" data-name="Rectangle 1619" width="9" height="9" rx="4.5" transform="translate(936 723)" fill="rgba(18,18,18,0.78)"/>
    <rect id="Rectangle_1620" data-name="Rectangle 1620" width="9" height="9" rx="4.5" transform="translate(912 729)" fill="rgba(18,18,18,0.78)"/>
    <rect id="Rectangle_1621" data-name="Rectangle 1621" width="9" height="9" rx="4.5" transform="translate(926 732)" fill="rgba(18,18,18,0.78)"/>
    <rect id="Rectangle_1622" data-name="Rectangle 1622" width="9" height="9" rx="4.5" transform="translate(906 740)" fill="rgba(18,18,18,0.78)"/>
    <rect id="Rectangle_1623" data-name="Rectangle 1623" width="9" height="9" rx="4.5" transform="translate(902 729)" fill="rgba(18,18,18,0.78)"/>
    <rect id="Rectangle_1624" data-name="Rectangle 1624" width="9" height="9" rx="4.5" transform="translate(886 729)" fill="rgba(18,18,18,0.78)"/>
    <rect id="Rectangle_1625" data-name="Rectangle 1625" width="9" height="9" rx="4.5" transform="translate(896 738)" fill="rgba(18,18,18,0.78)"/>
    <rect id="Rectangle_1626" data-name="Rectangle 1626" width="9" height="9" rx="4.5" transform="translate(875 742)" fill="rgba(18,18,18,0.78)"/>
    <rect id="Rectangle_1627" data-name="Rectangle 1627" width="9" height="9" rx="4.5" transform="translate(886 742)" fill="rgba(18,18,18,0.78)"/>
    <rect id="Rectangle_1628" data-name="Rectangle 1628" width="9" height="9" rx="4.5" transform="translate(875 729)" fill="rgba(18,18,18,0.78)"/>
    <rect id="Rectangle_1629" data-name="Rectangle 1629" width="3" height="3" rx="1.5" transform="translate(865 732)" fill="rgba(18,18,18,0.78)"/>
    <rect id="Rectangle_1630" data-name="Rectangle 1630" width="9" height="9" rx="4.5" transform="translate(865 741)" fill="rgba(18,18,18,0.78)"/>
    <rect id="Rectangle_1631" data-name="Rectangle 1631" width="9" height="9" rx="4.5" transform="translate(853 740)" fill="rgba(18,18,18,0.78)"/>
    <rect id="Rectangle_1632" data-name="Rectangle 1632" width="9" height="9" rx="4.5" transform="translate(850 729)" fill="rgba(18,18,18,0.78)"/>
    <rect id="Rectangle_1633" data-name="Rectangle 1633" width="5" height="5" rx="2.5" transform="translate(807 600)" fill="rgba(18,18,18,0.78)"/>
    <rect id="Rectangle_1634" data-name="Rectangle 1634" width="9" height="9" rx="4.5" transform="translate(842 738)" fill="rgba(18,18,18,0.78)"/>
    <rect id="Rectangle_1635" data-name="Rectangle 1635" width="9" height="9" rx="4.5" transform="translate(825 726)" fill="rgba(18,18,18,0.78)"/>
    <rect id="Rectangle_1636" data-name="Rectangle 1636" width="6" height="6" rx="3" transform="translate(808 592)" fill="rgba(18,18,18,0.78)"/>
    <rect id="Rectangle_1637" data-name="Rectangle 1637" width="4" height="4" rx="2" transform="translate(806 588)" fill="rgba(18,18,18,0.78)"/>
    <rect id="Rectangle_1638" data-name="Rectangle 1638" width="3" height="3" rx="1.5" transform="translate(806 581)" fill="rgba(18,18,18,0.78)"/>
    <rect id="Rectangle_1639" data-name="Rectangle 1639" width="3" height="3" rx="1.5" transform="translate(809 585)" fill="rgba(18,18,18,0.78)"/>
    <rect id="Rectangle_1640" data-name="Rectangle 1640" width="9" height="9" rx="4.5" transform="translate(917 737)" fill="rgba(18,18,18,0.78)"/>
    <rect id="Rectangle_1641" data-name="Rectangle 1641" width="3" height="3" rx="1.5" transform="translate(959 585)" fill="rgba(18,18,18,0.78)"/>
    <rect id="Rectangle_1642" data-name="Rectangle 1642" width="9" height="9" rx="4.5" transform="translate(835 730)" fill="rgba(18,18,18,0.78)"/>
    <rect id="Rectangle_1643" data-name="Rectangle 1643" width="2" height="2" rx="1" transform="translate(830 493)" fill="rgba(0,0,0,0.78)"/>
    <rect id="Rectangle_1644" data-name="Rectangle 1644" width="6" height="6" rx="3" transform="translate(878 613)" fill="rgba(18,18,18,0.78)"/>
    <rect id="Rectangle_1645" data-name="Rectangle 1645" width="6" height="6" rx="3" transform="translate(885 613)" fill="rgba(18,18,18,0.78)"/>
    <rect id="Rectangle_1646" data-name="Rectangle 1646" width="3" height="3" rx="1.5" transform="translate(833 492)" fill="rgba(0,0,0,0.78)"/>
    <rect id="Rectangle_1647" data-name="Rectangle 1647" width="5" height="5" rx="2.5" transform="translate(837 490)" fill="rgba(0,0,0,0.78)"/>
    <rect id="Rectangle_1648" data-name="Rectangle 1648" width="8" height="8" rx="4" transform="translate(843 487)" fill="rgba(0,0,0,0.78)"/>
    <rect id="Rectangle_1649" data-name="Rectangle 1649" width="11" height="11" rx="5.5" transform="translate(852 484)" fill="rgba(0,0,0,0.78)"/>
    <rect id="Rectangle_1650" data-name="Rectangle 1650" width="11" height="11" rx="5.5" transform="translate(906 484)" fill="rgba(0,0,0,0.78)"/>
    <rect id="Rectangle_1651" data-name="Rectangle 1651" width="8" height="8" rx="4" transform="translate(918 487)" fill="rgba(0,0,0,0.78)"/>
    <rect id="Rectangle_1652" data-name="Rectangle 1652" width="5" height="5" rx="2.5" transform="translate(927 490)" fill="rgba(0,0,0,0.78)"/>
    <rect id="Rectangle_1653" data-name="Rectangle 1653" width="3" height="3" rx="1.5" transform="translate(933 492)" fill="rgba(0,0,0,0.78)"/>
    <rect id="Rectangle_1654" data-name="Rectangle 1654" width="2" height="2" rx="1" transform="translate(937 493)" fill="rgba(0,0,0,0.78)"/>
    <rect id="Rectangle_1655" data-name="Rectangle 1655" width="9" height="9" rx="4.5" transform="translate(818 717)" fill="rgba(18,18,18,0.78)"/>
    <rect id="Rectangle_1656" data-name="Rectangle 1656" width="9" height="9" rx="4.5" transform="translate(832 719)" fill="rgba(18,18,18,0.78)"/>
    <rect id="Rectangle_1657" data-name="Rectangle 1657" width="9" height="9" rx="4.5" transform="translate(842 723)" fill="rgba(18,18,18,0.78)"/>
    <rect id="Rectangle_1658" data-name="Rectangle 1658" width="9" height="9" rx="4.5" transform="translate(932 714)" fill="rgba(18,18,18,0.78)"/>
    <rect id="Rectangle_1659" data-name="Rectangle 1659" width="9" height="9" rx="4.5" transform="translate(942 713)" fill="rgba(18,18,18,0.78)"/>
    <rect id="Rectangle_1660" data-name="Rectangle 1660" width="4" height="4" rx="2" transform="translate(829 717)" fill="rgba(18,18,18,0.78)"/>
    <rect id="Rectangle_1661" data-name="Rectangle 1661" width="4" height="4" rx="2" transform="translate(858 735)" fill="rgba(18,18,18,0.78)"/>
    <rect id="Rectangle_1662" data-name="Rectangle 1662" width="4" height="4" rx="2" transform="translate(859 728)" fill="rgba(18,18,18,0.78)"/>
    <rect id="Rectangle_1663" data-name="Rectangle 1663" width="4" height="4" rx="2" transform="translate(863 738)" fill="rgba(18,18,18,0.78)"/>
    <rect id="Rectangle_1664" data-name="Rectangle 1664" width="3" height="3" rx="1.5" transform="translate(872 738)" fill="rgba(18,18,18,0.78)"/>
    <rect id="Rectangle_1665" data-name="Rectangle 1665" width="3" height="3" rx="1.5" transform="translate(870 728)" fill="rgba(18,18,18,0.78)"/>
    <rect id="Rectangle_1666" data-name="Rectangle 1666" width="3" height="3" rx="1.5" transform="translate(885 726)" fill="rgba(18,18,18,0.78)"/>
    <rect id="Rectangle_1667" data-name="Rectangle 1667" width="3" height="3" rx="1.5" transform="translate(897 731)" fill="rgba(18,18,18,0.78)"/>
    <rect id="Rectangle_1668" data-name="Rectangle 1668" width="3" height="3" rx="1.5" transform="translate(910 725)" fill="rgba(18,18,18,0.78)"/>
    <rect id="Rectangle_1669" data-name="Rectangle 1669" width="3" height="3" rx="1.5" transform="translate(920 725)" fill="rgba(18,18,18,0.78)"/>
    <rect id="Rectangle_1670" data-name="Rectangle 1670" width="3" height="3" rx="1.5" transform="translate(901 748)" fill="rgba(18,18,18,0.78)"/>
    <rect id="Rectangle_1671" data-name="Rectangle 1671" width="3" height="3" rx="1.5" transform="translate(883 738)" fill="rgba(18,18,18,0.78)"/>
    <rect id="Rectangle_1672" data-name="Rectangle 1672" width="3" height="3" rx="1.5" transform="translate(887 739)" fill="rgba(18,18,18,0.78)"/>
    <rect id="Rectangle_1673" data-name="Rectangle 1673" width="3" height="3" rx="1.5" transform="translate(895 748)" fill="rgba(18,18,18,0.78)"/>
    <rect id="Rectangle_1674" data-name="Rectangle 1674" width="3" height="3" rx="1.5" transform="translate(910 737)" fill="rgba(18,18,18,0.78)"/>
    <rect id="Rectangle_1675" data-name="Rectangle 1675" width="3" height="3" rx="1.5" transform="translate(921 730)" fill="rgba(18,18,18,0.78)"/>
    <rect id="Rectangle_1676" data-name="Rectangle 1676" width="3" height="3" rx="1.5" transform="translate(922 733)" fill="rgba(18,18,18,0.78)"/>
    <rect id="Rectangle_1677" data-name="Rectangle 1677" width="3" height="3" rx="1.5" transform="translate(869 734)" fill="rgba(18,18,18,0.78)"/>
    <rect id="Rectangle_1678" data-name="Rectangle 1678" width="3" height="3" rx="1.5" transform="translate(862 747)" fill="rgba(18,18,18,0.78)"/>
    <rect id="Rectangle_1679" data-name="Rectangle 1679" width="3" height="3" rx="1.5" transform="translate(846 734)" fill="rgba(18,18,18,0.78)"/>
    <rect id="Rectangle_1680" data-name="Rectangle 1680" width="3" height="3" rx="1.5" transform="translate(838 740)" fill="rgba(18,18,18,0.78)"/>
    <rect id="Rectangle_1681" data-name="Rectangle 1681" width="3" height="3" rx="1.5" transform="translate(841 720)" fill="rgba(18,18,18,0.78)"/>
    <rect id="Rectangle_1682" data-name="Rectangle 1682" width="3" height="3" rx="1.5" transform="translate(826 714)" fill="rgba(18,18,18,0.78)"/>
    <rect id="Rectangle_1683" data-name="Rectangle 1683" width="3" height="3" rx="1.5" transform="translate(828 722)" fill="rgba(18,18,18,0.78)"/>
    <rect id="Rectangle_1684" data-name="Rectangle 1684" width="3" height="3" rx="1.5" transform="translate(831 736)" fill="rgba(18,18,18,0.78)"/>
    <rect id="Rectangle_1685" data-name="Rectangle 1685" width="4" height="4" rx="2" transform="translate(900 726)" fill="rgba(18,18,18,0.78)"/>
    <rect id="Rectangle_1686" data-name="Rectangle 1686" width="4" height="4" rx="2" transform="translate(893 726)" fill="rgba(18,18,18,0.78)"/>
    <rect id="Rectangle_1687" data-name="Rectangle 1687" width="4" height="4" rx="2" transform="translate(892 738)" fill="rgba(18,18,18,0.78)"/>
    <rect id="Rectangle_1688" data-name="Rectangle 1688" width="4" height="4" rx="2" transform="translate(927 718)" fill="rgba(18,18,18,0.78)"/>
    <rect id="Rectangle_1689" data-name="Rectangle 1689" width="4" height="4" rx="2" transform="translate(950 711)" fill="rgba(18,18,18,0.78)"/>
    <rect id="Rectangle_1690" data-name="Rectangle 1690" width="4" height="4" rx="2" transform="translate(935 732)" fill="rgba(18,18,18,0.78)"/>
    <rect id="Rectangle_1691" data-name="Rectangle 1691" width="4" height="4" rx="2" transform="matrix(0.966, 0.259, -0.259, 0.966, 932.586, 722.551)" fill="rgba(18,18,18,0.78)"/>
    <rect id="Rectangle_1692" data-name="Rectangle 1692" width="3" height="3" rx="1.5" transform="translate(916 725)" fill="rgba(18,18,18,0.78)"/>
    <g transform="matrix(1, 0, 0, 1, 0, 0)" filter="url(#Path_11)">
      <path id="Path_11-2" data-name="Path 11" d="M7732,3505.169c57.177,5.563,50.787,44.156,50.787,44.156" transform="translate(8868.93 -2341.44) rotate(135)" opacity="0.73"/>
    </g>
  </g>
</svg>
